# xmcd
#
# Track frame offsets: 
#        150
#        11354
#        33550
#        56688
#        63628
#        77206
#        89651
#        110049
#        123629
#        145917
#        169290
#        190570
#        217193
#        236960
#        250314
#        283230
#        300482
#
# Disc length: 4214 seconds
#
# Revision: 0
# Processed by: cddbd v1.5.2PL0 Copyright (c) Steve Scherf et al.
# Submitted via: ExactAudioCopyFreeDBPlugin 1.0
#
DISCID=08107411
DTITLE=Koslowski - Live bei Milz On Wheelz CD2
DYEAR=2004
DGENRE=Blues
TTITLE0=Die Dame mit der Peitsche
TTITLE1=Der Postbeamte Heidemann
TTITLE2=Spießer
TTITLE3=Ansage Thomas Luig
TTITLE4=Auf Trabbel
TTITLE5=Ich bin ein Liebhaber
TTITLE6=Jazzmusik
TTITLE7=Rote Strapse
TTITLE8=Blockwart Blues
TTITLE9=Autokino
TTITLE10=Mama, Mama!
TTITLE11=So wie ein Tiger
TTITLE12=Arschloch
TTITLE13=Fackel nicht so lange
TTITLE14=Die Spinne
TTITLE15=Ich hab sie alle gehabt
TTITLE16=Ein Herz für Kinder
EXTD=
EXTT0=
EXTT1=
EXTT2=
EXTT3=
EXTT4=
EXTT5=
EXTT6=
EXTT7=
EXTT8=
EXTT9=
EXTT10=
EXTT11=
EXTT12=
EXTT13=
EXTT14=
EXTT15=
EXTT16=
PLAYORDER=
